<svg width="790" height="790" viewBox="0 0 790 790" fill="none" xmlns="http://www.w3.org/2000/svg">
<g clip-path="url(#clip0_1_84)">
<path fill-rule="evenodd" clip-rule="evenodd" d="M198 0C88.6476 0 0 88.6476 0 198V592C0 701.352 88.6476 790 198 790H592C701.352 790 790 701.352 790 592V198C790 88.6476 701.352 0 592 0H198ZM132.032 714.517C230.007 795.135 427.137 717.438 572.335 540.978C717.533 364.518 755.815 156.115 657.84 75.4977C559.866 -5.11948 362.735 72.5768 217.537 249.037C72.339 425.498 34.057 633.9 132.032 714.517Z" fill="white"/>
<path d="M544.953 401.187C431.958 421.982 415.087 438.852 394.293 551.847C373.499 438.852 356.628 421.982 243.633 401.187C356.628 380.393 373.499 363.522 394.293 250.527C415.087 363.522 431.958 380.393 544.953 401.187Z" fill="white"/>
<circle cx="564.633" cy="187.527" r="43" fill="white"/>
</g>
<defs>
<clipPath id="clip0_1_84">
<rect width="790" height="790" fill="white"/>
</clipPath>
</defs>
</svg>
