<?xml version="1.0" encoding="UTF-8"?>
<!-- Generated by Pixelmator Pro 3.3.13 -->
<svg width="32" height="32" viewBox="0 0 32 32" xmlns="http://www.w3.org/2000/svg">
    <linearGradient id="linearGradient1" x1="0" y1="0" x2="32" y2="32" gradientUnits="userSpaceOnUse">
        <stop offset="1e-05" stop-color="#741bce" stop-opacity="1"/>
        <stop offset="1" stop-color="#f97801" stop-opacity="1"/>
    </linearGradient>
    <path id="Trac" fill="url(#linearGradient1)" fill-rule="evenodd" stroke="none" d="M 8.020253 0 C 3.590789 0 0 3.590788 0 8.020252 L 0 23.979748 C 0 28.409195 3.590789 32 8.020253 32 L 23.979748 32 C 28.409195 32 32 28.409195 32 23.979748 L 32 8.020252 C 32 3.590788 28.409195 0 23.979748 0 L 8.020253 0 Z M 5.348132 28.942463 C 9.316739 32.208 17.301752 29.06078 23.183191 21.913034 C 29.064629 14.765285 30.615292 6.323645 26.646685 3.058134 C 22.678118 -0.207371 14.693063 2.939819 8.811625 10.087574 C 2.930187 17.235361 1.379524 25.676964 5.348132 28.942463 Z"/>
    <linearGradient id="linearGradient2" x1="10.988126" y1="13.322413" x2="18.443206" y2="22.986406" gradientUnits="userSpaceOnUse">
        <stop offset="0" stop-color="#7a21c3" stop-opacity="1"/>
        <stop offset="1" stop-color="#ff8e00" stop-opacity="1"/>
    </linearGradient>
    <path id="Trac-copie-2" fill="url(#linearGradient2)" stroke="none" d="M 20.81835 18.154411 C 16.241337 18.996738 15.557955 19.68008 14.715666 24.257093 C 13.873377 19.68008 13.189995 18.996738 8.612982 18.154411 C 13.189995 17.312122 13.873377 16.628738 14.715666 12.051725 C 15.557955 16.628738 16.241337 17.312122 20.81835 18.154411 Z"/>
    <linearGradient id="linearGradient3" x1="20.551633" y1="8.120723" x2="22.679394" y2="10.878931" gradientUnits="userSpaceOnUse">
        <stop offset="0" stop-color="#7a21c3" stop-opacity="1"/>
        <stop offset="1" stop-color="#ff8e00" stop-opacity="1"/>
    </linearGradient>
    <path id="Trac-copie" fill="url(#linearGradient3)" stroke="none" d="M 23.357286 9.499826 C 23.357286 10.461782 22.577467 11.2416 21.615513 11.2416 C 20.653561 11.2416 19.873741 10.461782 19.873741 9.499826 C 19.873741 8.537874 20.653561 7.758055 21.615513 7.758055 C 22.577467 7.758055 23.357286 8.537874 23.357286 9.499826 Z"/>
</svg>
