<svg width="3538" height="790" viewBox="0 0 3538 790" fill="none" xmlns="http://www.w3.org/2000/svg">
<g clip-path="url(#clip0_1_75)">
<path d="M1021.9 399.189C1006.8 399.189 991.696 396.357 976.592 390.693C961.488 385.029 948.154 376.769 936.59 365.913L966.326 330.159C974.586 337.239 983.79 343.021 993.938 347.505C1004.09 351.989 1013.88 354.231 1023.32 354.231C1044.8 354.231 1055.53 346.797 1055.53 331.929C1055.53 324.613 1052.47 319.303 1046.33 315.999C1040.43 312.459 1032.41 308.565 1022.26 304.317L992.168 291.573C980.368 286.853 969.63 279.419 959.954 269.271C950.514 258.887 945.794 245.317 945.794 228.561C945.794 209.445 953.464 193.279 968.804 180.063C984.144 166.611 1003.85 159.885 1027.92 159.885C1041.14 159.885 1054.35 162.481 1067.57 167.673C1080.79 172.865 1092.35 180.417 1102.26 190.329L1075.71 223.251C1068.16 217.351 1060.61 212.867 1053.06 209.799C1045.5 206.495 1037.13 204.843 1027.92 204.843C1018.95 204.843 1011.76 206.731 1006.33 210.507C1001.14 214.047 998.54 219.121 998.54 225.729C998.54 232.809 1001.84 238.119 1008.45 241.659C1015.3 245.199 1023.67 248.975 1033.59 252.987L1063.32 265.023C1077.25 270.687 1088.34 278.475 1096.6 288.387C1104.86 298.299 1108.99 311.397 1108.99 327.681C1108.99 346.797 1101.32 363.553 1085.98 377.949C1070.87 392.109 1049.52 399.189 1021.9 399.189ZM1148.16 394.941V164.133H1227.46C1252.71 164.133 1274.31 169.561 1292.24 180.417C1310.18 191.273 1319.15 210.625 1319.15 238.473C1319.15 265.613 1310.18 285.437 1292.24 297.945C1274.31 310.453 1253.18 316.707 1228.88 316.707H1200.2V394.941H1148.16ZM1200.2 275.289H1225.69C1254.01 275.289 1268.17 263.017 1268.17 238.473C1268.17 226.437 1264.39 217.941 1256.84 212.985C1249.29 208.029 1238.43 205.551 1224.27 205.551H1200.2V275.289ZM1395.57 278.121L1389.91 299.361H1439.12L1433.81 278.121C1430.5 266.557 1427.32 254.285 1424.25 241.305C1421.18 228.325 1418.11 215.817 1415.04 203.781H1413.63C1410.8 216.053 1407.85 228.679 1404.78 241.659C1401.95 254.403 1398.88 266.557 1395.57 278.121ZM1463.9 394.941L1449.74 340.071H1379.29L1365.13 394.941H1312.03L1384.25 164.133H1446.9L1519.12 394.941H1463.9ZM1637.17 399.189C1617.58 399.189 1599.65 394.705 1583.36 385.737C1567.31 376.769 1554.33 363.553 1544.42 346.089C1534.75 328.625 1529.91 306.913 1529.91 280.953C1529.91 255.465 1534.86 233.753 1544.78 215.817C1554.92 197.645 1568.26 183.839 1584.78 174.399C1601.53 164.723 1619.59 159.885 1638.94 159.885C1653.81 159.885 1667.14 162.953 1678.94 169.089C1690.74 174.989 1700.54 181.951 1708.32 189.975L1680.71 223.251C1674.81 217.823 1668.56 213.457 1661.95 210.153C1655.58 206.613 1648.26 204.843 1640 204.843C1624.19 204.843 1610.74 211.451 1599.65 224.667C1588.79 237.883 1583.36 256.055 1583.36 279.183C1583.36 303.019 1588.44 321.545 1598.58 334.761C1608.73 347.741 1622.3 354.231 1639.29 354.231C1648.73 354.231 1657.11 352.225 1664.43 348.213C1671.98 343.965 1678.59 338.773 1684.25 332.637L1711.86 365.205C1692.51 387.861 1667.61 399.189 1637.17 399.189ZM1746.92 394.941V164.133H1891.35V208.029H1798.96V254.403H1877.55V297.945H1798.96V351.045H1894.89V394.941H1746.92ZM2051.73 394.941L1981.99 164.133H2037.22L2064.83 271.749C2068.37 284.257 2071.44 296.529 2074.03 308.565C2076.87 320.601 2080.05 332.991 2083.59 345.735H2085.01C2088.31 332.991 2091.38 320.601 2094.21 308.565C2097.04 296.529 2100.11 284.257 2103.42 271.749L2130.67 164.133H2183.77L2114.39 394.941H2051.73ZM2298.79 399.189C2267.64 399.189 2242.38 388.569 2223.03 367.329C2203.68 345.853 2194 316.235 2194 278.475C2194 240.715 2203.68 211.569 2223.03 191.037C2242.38 170.269 2267.64 159.885 2298.79 159.885C2329.94 159.885 2355.19 170.269 2374.54 191.037C2393.9 211.805 2403.57 240.951 2403.57 278.475C2403.57 316.235 2393.9 345.853 2374.54 367.329C2355.19 388.569 2329.94 399.189 2298.79 399.189ZM2298.79 354.231C2314.6 354.231 2327.11 347.387 2336.31 333.699C2345.52 320.011 2350.12 301.603 2350.12 278.475C2350.12 255.583 2345.52 237.647 2336.31 224.667C2327.11 211.451 2314.6 204.843 2298.79 204.843C2282.98 204.843 2270.47 211.451 2261.26 224.667C2252.06 237.647 2247.46 255.583 2247.46 278.475C2247.46 301.603 2252.06 320.011 2261.26 333.699C2270.47 347.387 2282.98 354.231 2298.79 354.231ZM2479.7 394.941V312.813L2409.97 164.133H2465.9L2486.43 217.233C2489.73 225.965 2492.92 234.461 2495.99 242.721C2499.06 250.745 2502.12 259.241 2505.19 268.209H2506.61C2509.91 259.241 2513.1 250.745 2516.17 242.721C2519.47 234.461 2522.77 225.965 2526.08 217.233L2546.96 164.133H2601.48L2531.74 312.813V394.941H2479.7ZM2673.98 278.121L2668.32 299.361H2717.53L2712.22 278.121C2708.91 266.557 2705.73 254.285 2702.66 241.305C2699.59 228.325 2696.52 215.817 2693.45 203.781H2692.04C2689.21 216.053 2686.26 228.679 2683.19 241.659C2680.36 254.403 2677.29 266.557 2673.98 278.121ZM2742.31 394.941L2728.15 340.071H2657.7L2643.54 394.941H2590.44L2662.66 164.133H2725.31L2797.53 394.941H2742.31ZM2921.24 399.189C2889.62 399.189 2862.83 389.159 2840.89 369.099C2819.17 349.039 2808.32 319.657 2808.32 280.953C2808.32 255.465 2813.39 233.753 2823.54 215.817C2833.69 197.645 2847.26 183.839 2864.25 174.399C2881.48 164.723 2900.36 159.885 2920.89 159.885C2937.41 159.885 2951.69 162.953 2963.72 169.089C2976 175.225 2985.91 182.187 2993.46 189.975L2966.2 223.251C2960.3 218.059 2954.05 213.693 2947.44 210.153C2940.83 206.613 2932.57 204.843 2922.66 204.843C2904.72 204.843 2890.09 211.451 2878.76 224.667C2867.44 237.883 2861.77 256.055 2861.77 279.183C2861.77 303.019 2867.08 321.545 2877.7 334.761C2888.56 347.741 2904.84 354.231 2926.55 354.231C2937.17 354.231 2945.43 351.871 2951.33 347.151V307.503H2913.1V265.023H2997.35V371.223C2989.33 379.011 2978.59 385.619 2965.14 391.047C2951.92 396.475 2937.29 399.189 2921.24 399.189ZM3045.04 394.941V164.133H3189.47V208.029H3097.07V254.403H3175.66V297.945H3097.07V351.045H3193.01V394.941H3045.04ZM3291.01 270.333H3317.92C3346 270.333 3360.04 258.887 3360.04 235.995C3360.04 224.667 3356.39 216.761 3349.07 212.277C3341.99 207.793 3331.61 205.551 3317.92 205.551H3291.01V270.333ZM3291.01 394.941H3238.98V164.133H3322.17C3346.71 164.133 3367.6 169.325 3384.82 179.709C3402.29 189.857 3411.02 208.619 3411.02 235.995C3411.02 252.987 3407.24 266.911 3399.69 277.767C3392.14 288.623 3382.23 296.883 3369.96 302.547L3422.35 394.941H3363.94L3319.69 311.751H3291.01V394.941Z" fill="white"/>
<path d="M968.451 633.585C959.227 633.585 951.509 630.754 945.298 625.091C939.179 619.337 936.119 609.245 936.119 594.814V542.069H947.49V595.088C947.49 605.957 949.5 613.446 953.518 617.556C957.537 621.575 962.515 623.584 968.451 623.584C974.388 623.584 979.411 621.575 983.521 617.556C987.631 613.446 989.686 605.957 989.686 595.088V542.069H1000.65V594.814C1000.65 609.245 997.587 619.337 991.467 625.091C985.348 630.754 977.676 633.585 968.451 633.585ZM1052.26 631.941V542.069H1064.04L1096.51 598.513L1106.24 617.145H1106.78C1106.51 612.579 1106.19 607.875 1105.82 603.034C1105.55 598.102 1105.41 593.262 1105.41 588.512V542.069H1116.24V631.941H1104.45L1071.85 575.36L1062.12 556.865H1061.57C1061.94 561.432 1062.26 566.09 1062.53 570.839C1062.9 575.497 1063.08 580.201 1063.08 584.95V631.941H1052.26ZM1223.24 631.941V542.069H1248.86C1258.91 542.069 1267.03 544.033 1273.25 547.96C1279.46 551.796 1282.56 558.646 1282.56 568.51C1282.56 577.918 1279.5 584.905 1273.38 589.471C1267.26 594.038 1259.27 596.321 1249.41 596.321H1234.61V631.941H1223.24ZM1234.61 587.005H1248.04C1263.47 587.005 1271.19 580.84 1271.19 568.51C1271.19 562.026 1269.18 557.55 1265.16 555.084C1261.23 552.527 1255.34 551.248 1247.49 551.248H1234.61V587.005ZM1328.26 631.941V542.069H1380.05V551.659H1339.64V579.881H1373.75V589.608H1339.64V622.214H1381.42V631.941H1328.26ZM1459.86 633.585C1450.63 633.585 1442.92 630.754 1436.71 625.091C1430.59 619.337 1427.53 609.245 1427.53 594.814V542.069H1438.9V595.088C1438.9 605.957 1440.91 613.446 1444.93 617.556C1448.94 621.575 1453.92 623.584 1459.86 623.584C1465.8 623.584 1470.82 621.575 1474.93 617.556C1479.04 613.446 1481.09 605.957 1481.09 595.088V542.069H1492.05V594.814C1492.05 609.245 1488.99 619.337 1482.87 625.091C1476.76 630.754 1469.08 633.585 1459.86 633.585ZM1598.52 631.941V542.069H1624.14C1634.18 542.069 1642.31 544.033 1648.52 547.96C1654.73 551.796 1657.84 558.646 1657.84 568.51C1657.84 577.918 1654.78 584.905 1648.66 589.471C1642.54 594.038 1634.55 596.321 1624.69 596.321H1609.89V631.941H1598.52ZM1609.89 587.005H1623.32C1638.75 587.005 1646.47 580.84 1646.47 568.51C1646.47 562.026 1644.46 557.55 1640.44 555.084C1636.51 552.527 1630.62 551.248 1622.77 551.248H1609.89V587.005ZM1703.54 631.941V542.069H1714.91V622.214H1754.23V631.941H1703.54ZM1829.52 633.585C1820.29 633.585 1812.58 630.754 1806.36 625.091C1800.25 619.337 1797.19 609.245 1797.19 594.814V542.069H1808.56V595.088C1808.56 605.957 1810.57 613.446 1814.58 617.556C1818.6 621.575 1823.58 623.584 1829.52 623.584C1835.45 623.584 1840.48 621.575 1844.59 617.556C1848.7 613.446 1850.75 605.957 1850.75 595.088V542.069H1861.71V594.814C1861.71 609.245 1858.65 619.337 1852.53 625.091C1846.41 630.754 1838.74 633.585 1829.52 633.585ZM1938.26 633.585C1931.96 633.585 1926.11 632.398 1920.72 630.023C1915.33 627.557 1910.68 624.315 1906.75 620.296L1913.6 612.35C1916.79 615.73 1920.54 618.47 1924.83 620.57C1929.22 622.58 1933.74 623.584 1938.4 623.584C1944.33 623.584 1948.94 622.26 1952.23 619.611C1955.52 616.871 1957.16 613.309 1957.16 608.925C1957.16 604.359 1955.75 601.071 1952.92 599.061C1950.09 596.961 1946.52 594.951 1942.23 593.033L1929.35 587.416C1925.06 585.681 1920.95 583.032 1917.02 579.47C1913.1 575.908 1911.13 570.839 1911.13 564.263C1911.13 557.413 1913.78 551.751 1919.08 547.275C1924.47 542.709 1931.23 540.425 1939.35 540.425C1944.65 540.425 1949.58 541.476 1954.15 543.576C1958.81 545.586 1962.74 548.234 1965.93 551.522L1959.77 558.92C1957.03 556.272 1953.97 554.217 1950.59 552.755C1947.3 551.203 1943.56 550.426 1939.35 550.426C1934.33 550.426 1930.27 551.614 1927.16 553.988C1924.15 556.363 1922.64 559.56 1922.64 563.578C1922.64 567.871 1924.24 571.068 1927.44 573.168C1930.63 575.269 1934.01 577.05 1937.57 578.511L1950.31 583.991C1955.52 586.275 1959.9 589.197 1963.47 592.759C1967.03 596.23 1968.81 601.299 1968.81 607.966C1968.81 615.09 1966.07 621.164 1960.59 626.187C1955.2 631.119 1947.76 633.585 1938.26 633.585ZM2068.79 631.941V542.069H2094.41C2104.45 542.069 2112.58 544.033 2118.79 547.96C2125 551.796 2128.11 558.646 2128.11 568.51C2128.11 577.918 2125.05 584.905 2118.93 589.471C2112.81 594.038 2104.82 596.321 2094.95 596.321H2080.16V631.941H2068.79ZM2080.16 587.005H2093.58C2109.02 587.005 2116.74 580.84 2116.74 568.51C2116.74 562.026 2114.73 557.55 2110.71 555.084C2106.78 552.527 2100.89 551.248 2093.04 551.248H2080.16V587.005ZM2185.18 584.676H2200.25C2214.77 584.676 2222.04 578.877 2222.04 567.277C2222.04 561.432 2220.16 557.322 2216.42 554.947C2212.67 552.481 2207.29 551.248 2200.25 551.248H2185.18V584.676ZM2185.18 631.941H2173.81V542.069H2201.9C2211.12 542.069 2218.66 543.942 2224.5 547.686C2230.44 551.431 2233.41 557.961 2233.41 567.277C2233.41 574.31 2231.53 579.927 2227.79 584.128C2224.14 588.33 2219.25 591.207 2213.13 592.759L2236.01 631.941H2223.13L2201.49 593.992H2185.18V631.941ZM2279.24 631.941V542.069H2331.02V551.659H2290.61V579.881H2324.72V589.608H2290.61V622.214H2332.39V631.941H2279.24ZM2308.14 536.452L2287.32 520.697L2293.76 513.162L2313.21 530.698L2308.14 536.452ZM2403.84 633.585C2397.54 633.585 2391.7 632.398 2386.31 630.023C2380.92 627.557 2376.26 624.315 2372.33 620.296L2379.18 612.35C2382.38 615.73 2386.13 618.47 2390.42 620.57C2394.8 622.58 2399.32 623.584 2403.98 623.584C2409.92 623.584 2414.53 622.26 2417.82 619.611C2421.11 616.871 2422.75 613.309 2422.75 608.925C2422.75 604.359 2421.33 601.071 2418.5 599.061C2415.67 596.961 2412.11 594.951 2407.82 593.033L2394.94 587.416C2390.65 585.681 2386.54 583.032 2382.61 579.47C2378.68 575.908 2376.72 570.839 2376.72 564.263C2376.72 557.413 2379.37 551.751 2384.66 547.275C2390.05 542.709 2396.81 540.425 2404.94 540.425C2410.24 540.425 2415.17 541.476 2419.74 543.576C2424.39 545.586 2428.32 548.234 2431.52 551.522L2425.35 558.92C2422.61 556.272 2419.55 554.217 2416.17 552.755C2412.89 551.203 2409.14 550.426 2404.94 550.426C2399.92 550.426 2395.85 551.614 2392.75 553.988C2389.73 556.363 2388.23 559.56 2388.23 563.578C2388.23 567.871 2389.82 571.068 2393.02 573.168C2396.22 575.269 2399.6 577.05 2403.16 578.511L2415.9 583.991C2421.11 586.275 2425.49 589.197 2429.05 592.759C2432.61 596.23 2434.4 601.299 2434.4 607.966C2434.4 615.09 2431.66 621.164 2426.18 626.187C2420.79 631.119 2413.34 633.585 2403.84 633.585ZM2534.37 631.941V542.069H2556.84C2570.72 542.069 2581.27 545.951 2588.49 553.714C2595.7 561.386 2599.31 572.346 2599.31 586.594C2599.31 600.934 2595.7 612.076 2588.49 620.022C2581.27 627.968 2570.91 631.941 2557.39 631.941H2534.37ZM2545.74 622.625H2556.02C2566.52 622.625 2574.38 619.474 2579.58 613.172C2584.88 606.87 2587.53 598.011 2587.53 586.594C2587.53 575.269 2584.88 566.592 2579.58 560.564C2574.38 554.445 2566.52 551.385 2556.02 551.385H2545.74V622.625ZM2646.09 631.941V542.069H2697.87V551.659H2657.46V579.881H2691.57V589.608H2657.46V622.214H2699.24V631.941H2646.09ZM2770.69 633.585C2764.39 633.585 2758.55 632.398 2753.16 630.023C2747.77 627.557 2743.11 624.315 2739.18 620.296L2746.03 612.35C2749.23 615.73 2752.98 618.47 2757.27 620.57C2761.65 622.58 2766.17 623.584 2770.83 623.584C2776.77 623.584 2781.38 622.26 2784.67 619.611C2787.96 616.871 2789.6 613.309 2789.6 608.925C2789.6 604.359 2788.18 601.071 2785.35 599.061C2782.52 596.961 2778.96 594.951 2774.67 593.033L2761.79 587.416C2757.5 585.681 2753.39 583.032 2749.46 579.47C2745.53 575.908 2743.57 570.839 2743.57 564.263C2743.57 557.413 2746.22 551.751 2751.51 547.275C2756.9 542.709 2763.66 540.425 2771.79 540.425C2777.09 540.425 2782.02 541.476 2786.59 543.576C2791.24 545.586 2795.17 548.234 2798.37 551.522L2792.2 558.92C2789.46 556.272 2786.4 554.217 2783.02 552.755C2779.74 551.203 2775.99 550.426 2771.79 550.426C2766.77 550.426 2762.7 551.614 2759.6 553.988C2756.58 556.363 2755.08 559.56 2755.08 563.578C2755.08 567.871 2756.67 571.068 2759.87 573.168C2763.07 575.269 2766.45 577.05 2770.01 578.511L2782.75 583.991C2787.96 586.275 2792.34 589.197 2795.9 592.759C2799.46 596.23 2801.24 601.299 2801.24 607.966C2801.24 615.09 2798.5 621.164 2793.02 626.187C2787.64 631.119 2780.19 633.585 2770.69 633.585ZM2901.22 631.941V542.069H2953.01V551.659H2912.59V579.881H2946.71V589.608H2912.59V622.214H2954.38V631.941H2901.22ZM2925.47 536.452L2920.4 530.698L2939.86 513.162L2946.3 520.697L2925.47 536.452ZM3019.53 631.941V551.659H2992.4V542.069H3058.16V551.659H3031.04V631.941H3019.53ZM3134.93 633.585C3123.6 633.585 3114.38 629.384 3107.25 620.981C3100.13 612.487 3096.57 601.025 3096.57 586.594C3096.57 572.255 3100.13 560.975 3107.25 552.755C3114.38 544.535 3123.6 540.425 3134.93 540.425C3146.25 540.425 3155.48 544.535 3162.6 552.755C3169.82 560.975 3173.42 572.255 3173.42 586.594C3173.42 601.025 3169.82 612.487 3162.6 620.981C3155.48 629.384 3146.25 633.585 3134.93 633.585ZM3134.93 623.584C3142.96 623.584 3149.4 620.251 3154.24 613.583C3159.08 606.825 3161.5 597.828 3161.5 586.594C3161.5 575.452 3159.08 566.638 3154.24 560.153C3149.4 553.669 3142.96 550.426 3134.93 550.426C3126.89 550.426 3120.45 553.669 3115.61 560.153C3110.77 566.638 3108.35 575.452 3108.35 586.594C3108.35 597.828 3110.77 606.825 3115.61 613.583C3120.45 620.251 3126.89 623.584 3134.93 623.584ZM3220.18 631.941V542.069H3231.55V631.941H3220.18ZM3283.59 631.941V542.069H3294.96V622.214H3334.28V631.941H3283.59ZM3377.65 631.941V542.069H3429.43V551.659H3389.02V579.881H3423.13V589.608H3389.02V622.214H3430.8V631.941H3377.65ZM3502.25 633.585C3495.95 633.585 3490.1 632.398 3484.72 630.023C3479.33 627.557 3474.67 624.315 3470.74 620.296L3477.59 612.35C3480.79 615.73 3484.53 618.47 3488.83 620.57C3493.21 622.58 3497.73 623.584 3502.39 623.584C3508.33 623.584 3512.94 622.26 3516.23 619.611C3519.51 616.871 3521.16 613.309 3521.16 608.925C3521.16 604.359 3519.74 601.071 3516.91 599.061C3514.08 596.961 3510.52 594.951 3506.23 593.033L3493.35 587.416C3489.05 585.681 3484.94 583.032 3481.02 579.47C3477.09 575.908 3475.13 570.839 3475.13 564.263C3475.13 557.413 3477.77 551.751 3483.07 547.275C3488.46 542.709 3495.22 540.425 3503.35 540.425C3508.65 540.425 3513.58 541.476 3518.14 543.576C3522.8 545.586 3526.73 548.234 3529.93 551.522L3523.76 558.92C3521.02 556.272 3517.96 554.217 3514.58 552.755C3511.29 551.203 3507.55 550.426 3503.35 550.426C3498.32 550.426 3494.26 551.614 3491.16 553.988C3488.14 556.363 3486.63 559.56 3486.63 563.578C3486.63 567.871 3488.23 571.068 3491.43 573.168C3494.63 575.269 3498.01 577.05 3501.57 578.511L3514.31 583.991C3519.51 586.275 3523.9 589.197 3527.46 592.759C3531.02 596.23 3532.8 601.299 3532.8 607.966C3532.8 615.09 3530.06 621.164 3524.58 626.187C3519.19 631.119 3511.75 633.585 3502.25 633.585Z" fill="white"/>
<path fill-rule="evenodd" clip-rule="evenodd" d="M198 0C88.6476 0 0 88.6476 0 198V592C0 701.352 88.6476 790 198 790H592C701.352 790 790 701.352 790 592V198C790 88.6476 701.352 0 592 0H198ZM132.032 714.517C230.007 795.135 427.137 717.438 572.335 540.978C717.533 364.518 755.815 156.115 657.84 75.4977C559.866 -5.11948 362.735 72.5768 217.537 249.037C72.339 425.498 34.057 633.9 132.032 714.517Z" fill="white"/>
<path d="M544.953 401.187C431.958 421.982 415.087 438.852 394.293 551.847C373.499 438.852 356.628 421.982 243.633 401.187C356.628 380.393 373.499 363.522 394.293 250.527C415.087 363.522 431.958 380.393 544.953 401.187Z" fill="white"/>
<circle cx="564.633" cy="187.527" r="43" fill="white"/>
<path d="M1021.9 399.189C1006.8 399.189 991.696 396.357 976.592 390.693C961.488 385.029 948.154 376.769 936.59 365.913L966.326 330.159C974.586 337.239 983.79 343.021 993.938 347.505C1004.09 351.989 1013.88 354.231 1023.32 354.231C1044.8 354.231 1055.53 346.797 1055.53 331.929C1055.53 324.613 1052.47 319.303 1046.33 315.999C1040.43 312.459 1032.41 308.565 1022.26 304.317L992.168 291.573C980.368 286.853 969.63 279.419 959.954 269.271C950.514 258.887 945.794 245.317 945.794 228.561C945.794 209.445 953.464 193.279 968.804 180.063C984.144 166.611 1003.85 159.885 1027.92 159.885C1041.14 159.885 1054.35 162.481 1067.57 167.673C1080.79 172.865 1092.35 180.417 1102.26 190.329L1075.71 223.251C1068.16 217.351 1060.61 212.867 1053.06 209.799C1045.5 206.495 1037.13 204.843 1027.92 204.843C1018.95 204.843 1011.76 206.731 1006.33 210.507C1001.14 214.047 998.54 219.121 998.54 225.729C998.54 232.809 1001.84 238.119 1008.45 241.659C1015.3 245.199 1023.67 248.975 1033.59 252.987L1063.32 265.023C1077.25 270.687 1088.34 278.475 1096.6 288.387C1104.86 298.299 1108.99 311.397 1108.99 327.681C1108.99 346.797 1101.32 363.553 1085.98 377.949C1070.87 392.109 1049.52 399.189 1021.9 399.189ZM1148.16 394.941V164.133H1227.46C1252.71 164.133 1274.31 169.561 1292.24 180.417C1310.18 191.273 1319.15 210.625 1319.15 238.473C1319.15 265.613 1310.18 285.437 1292.24 297.945C1274.31 310.453 1253.18 316.707 1228.88 316.707H1200.2V394.941H1148.16ZM1200.2 275.289H1225.69C1254.01 275.289 1268.17 263.017 1268.17 238.473C1268.17 226.437 1264.39 217.941 1256.84 212.985C1249.29 208.029 1238.43 205.551 1224.27 205.551H1200.2V275.289ZM1395.57 278.121L1389.91 299.361H1439.12L1433.81 278.121C1430.5 266.557 1427.32 254.285 1424.25 241.305C1421.18 228.325 1418.11 215.817 1415.04 203.781H1413.63C1410.8 216.053 1407.85 228.679 1404.78 241.659C1401.95 254.403 1398.88 266.557 1395.57 278.121ZM1463.9 394.941L1449.74 340.071H1379.29L1365.13 394.941H1312.03L1384.25 164.133H1446.9L1519.12 394.941H1463.9ZM1637.17 399.189C1617.58 399.189 1599.65 394.705 1583.36 385.737C1567.31 376.769 1554.33 363.553 1544.42 346.089C1534.75 328.625 1529.91 306.913 1529.91 280.953C1529.91 255.465 1534.86 233.753 1544.78 215.817C1554.92 197.645 1568.26 183.839 1584.78 174.399C1601.53 164.723 1619.59 159.885 1638.94 159.885C1653.81 159.885 1667.14 162.953 1678.94 169.089C1690.74 174.989 1700.54 181.951 1708.32 189.975L1680.71 223.251C1674.81 217.823 1668.56 213.457 1661.95 210.153C1655.58 206.613 1648.26 204.843 1640 204.843C1624.19 204.843 1610.74 211.451 1599.65 224.667C1588.79 237.883 1583.36 256.055 1583.36 279.183C1583.36 303.019 1588.44 321.545 1598.58 334.761C1608.73 347.741 1622.3 354.231 1639.29 354.231C1648.73 354.231 1657.11 352.225 1664.43 348.213C1671.98 343.965 1678.59 338.773 1684.25 332.637L1711.86 365.205C1692.51 387.861 1667.61 399.189 1637.17 399.189ZM1746.92 394.941V164.133H1891.35V208.029H1798.96V254.403H1877.55V297.945H1798.96V351.045H1894.89V394.941H1746.92ZM2051.73 394.941L1981.99 164.133H2037.22L2064.83 271.749C2068.37 284.257 2071.44 296.529 2074.03 308.565C2076.87 320.601 2080.05 332.991 2083.59 345.735H2085.01C2088.31 332.991 2091.38 320.601 2094.21 308.565C2097.04 296.529 2100.11 284.257 2103.42 271.749L2130.67 164.133H2183.77L2114.39 394.941H2051.73ZM2298.79 399.189C2267.64 399.189 2242.38 388.569 2223.03 367.329C2203.68 345.853 2194 316.235 2194 278.475C2194 240.715 2203.68 211.569 2223.03 191.037C2242.38 170.269 2267.64 159.885 2298.79 159.885C2329.94 159.885 2355.19 170.269 2374.54 191.037C2393.9 211.805 2403.57 240.951 2403.57 278.475C2403.57 316.235 2393.9 345.853 2374.54 367.329C2355.19 388.569 2329.94 399.189 2298.79 399.189ZM2298.79 354.231C2314.6 354.231 2327.11 347.387 2336.31 333.699C2345.52 320.011 2350.12 301.603 2350.12 278.475C2350.12 255.583 2345.52 237.647 2336.31 224.667C2327.11 211.451 2314.6 204.843 2298.79 204.843C2282.98 204.843 2270.47 211.451 2261.26 224.667C2252.06 237.647 2247.46 255.583 2247.46 278.475C2247.46 301.603 2252.06 320.011 2261.26 333.699C2270.47 347.387 2282.98 354.231 2298.79 354.231ZM2479.7 394.941V312.813L2409.97 164.133H2465.9L2486.43 217.233C2489.73 225.965 2492.92 234.461 2495.99 242.721C2499.06 250.745 2502.12 259.241 2505.19 268.209H2506.61C2509.91 259.241 2513.1 250.745 2516.17 242.721C2519.47 234.461 2522.77 225.965 2526.08 217.233L2546.96 164.133H2601.48L2531.74 312.813V394.941H2479.7ZM2673.98 278.121L2668.32 299.361H2717.53L2712.22 278.121C2708.91 266.557 2705.73 254.285 2702.66 241.305C2699.59 228.325 2696.52 215.817 2693.45 203.781H2692.04C2689.21 216.053 2686.26 228.679 2683.19 241.659C2680.36 254.403 2677.29 266.557 2673.98 278.121ZM2742.31 394.941L2728.15 340.071H2657.7L2643.54 394.941H2590.44L2662.66 164.133H2725.31L2797.53 394.941H2742.31ZM2921.24 399.189C2889.62 399.189 2862.83 389.159 2840.89 369.099C2819.17 349.039 2808.32 319.657 2808.32 280.953C2808.32 255.465 2813.39 233.753 2823.54 215.817C2833.69 197.645 2847.26 183.839 2864.25 174.399C2881.48 164.723 2900.36 159.885 2920.89 159.885C2937.41 159.885 2951.69 162.953 2963.72 169.089C2976 175.225 2985.91 182.187 2993.46 189.975L2966.2 223.251C2960.3 218.059 2954.05 213.693 2947.44 210.153C2940.83 206.613 2932.57 204.843 2922.66 204.843C2904.72 204.843 2890.09 211.451 2878.76 224.667C2867.44 237.883 2861.77 256.055 2861.77 279.183C2861.77 303.019 2867.08 321.545 2877.7 334.761C2888.56 347.741 2904.84 354.231 2926.55 354.231C2937.17 354.231 2945.43 351.871 2951.33 347.151V307.503H2913.1V265.023H2997.35V371.223C2989.33 379.011 2978.59 385.619 2965.14 391.047C2951.92 396.475 2937.29 399.189 2921.24 399.189ZM3045.04 394.941V164.133H3189.47V208.029H3097.07V254.403H3175.66V297.945H3097.07V351.045H3193.01V394.941H3045.04ZM3291.01 270.333H3317.92C3346 270.333 3360.04 258.887 3360.04 235.995C3360.04 224.667 3356.39 216.761 3349.07 212.277C3341.99 207.793 3331.61 205.551 3317.92 205.551H3291.01V270.333ZM3291.01 394.941H3238.98V164.133H3322.17C3346.71 164.133 3367.6 169.325 3384.82 179.709C3402.29 189.857 3411.02 208.619 3411.02 235.995C3411.02 252.987 3407.24 266.911 3399.69 277.767C3392.14 288.623 3382.23 296.883 3369.96 302.547L3422.35 394.941H3363.94L3319.69 311.751H3291.01V394.941Z" fill="white"/>
<path d="M968.451 633.585C959.227 633.585 951.509 630.754 945.298 625.091C939.179 619.337 936.119 609.245 936.119 594.814V542.069H947.49V595.088C947.49 605.957 949.5 613.446 953.518 617.556C957.537 621.575 962.515 623.584 968.451 623.584C974.388 623.584 979.411 621.575 983.521 617.556C987.631 613.446 989.686 605.957 989.686 595.088V542.069H1000.65V594.814C1000.65 609.245 997.587 619.337 991.467 625.091C985.348 630.754 977.676 633.585 968.451 633.585ZM1052.26 631.941V542.069H1064.04L1096.51 598.513L1106.24 617.145H1106.78C1106.51 612.579 1106.19 607.875 1105.82 603.034C1105.55 598.102 1105.41 593.262 1105.41 588.512V542.069H1116.24V631.941H1104.45L1071.85 575.36L1062.12 556.865H1061.57C1061.94 561.432 1062.26 566.09 1062.53 570.839C1062.9 575.497 1063.08 580.201 1063.08 584.95V631.941H1052.26ZM1223.24 631.941V542.069H1248.86C1258.91 542.069 1267.03 544.033 1273.25 547.96C1279.46 551.796 1282.56 558.646 1282.56 568.51C1282.56 577.918 1279.5 584.905 1273.38 589.471C1267.26 594.038 1259.27 596.321 1249.41 596.321H1234.61V631.941H1223.24ZM1234.61 587.005H1248.04C1263.47 587.005 1271.19 580.84 1271.19 568.51C1271.19 562.026 1269.18 557.55 1265.16 555.084C1261.23 552.527 1255.34 551.248 1247.49 551.248H1234.61V587.005ZM1328.26 631.941V542.069H1380.05V551.659H1339.64V579.881H1373.75V589.608H1339.64V622.214H1381.42V631.941H1328.26ZM1459.86 633.585C1450.63 633.585 1442.92 630.754 1436.71 625.091C1430.59 619.337 1427.53 609.245 1427.53 594.814V542.069H1438.9V595.088C1438.9 605.957 1440.91 613.446 1444.93 617.556C1448.94 621.575 1453.92 623.584 1459.86 623.584C1465.8 623.584 1470.82 621.575 1474.93 617.556C1479.04 613.446 1481.09 605.957 1481.09 595.088V542.069H1492.05V594.814C1492.05 609.245 1488.99 619.337 1482.87 625.091C1476.76 630.754 1469.08 633.585 1459.86 633.585ZM1598.52 631.941V542.069H1624.14C1634.18 542.069 1642.31 544.033 1648.52 547.96C1654.73 551.796 1657.84 558.646 1657.84 568.51C1657.84 577.918 1654.78 584.905 1648.66 589.471C1642.54 594.038 1634.55 596.321 1624.69 596.321H1609.89V631.941H1598.52ZM1609.89 587.005H1623.32C1638.75 587.005 1646.47 580.84 1646.47 568.51C1646.47 562.026 1644.46 557.55 1640.44 555.084C1636.51 552.527 1630.62 551.248 1622.77 551.248H1609.89V587.005ZM1703.54 631.941V542.069H1714.91V622.214H1754.23V631.941H1703.54ZM1829.52 633.585C1820.29 633.585 1812.58 630.754 1806.36 625.091C1800.25 619.337 1797.19 609.245 1797.19 594.814V542.069H1808.56V595.088C1808.56 605.957 1810.57 613.446 1814.58 617.556C1818.6 621.575 1823.58 623.584 1829.52 623.584C1835.45 623.584 1840.48 621.575 1844.59 617.556C1848.7 613.446 1850.75 605.957 1850.75 595.088V542.069H1861.71V594.814C1861.71 609.245 1858.65 619.337 1852.53 625.091C1846.41 630.754 1838.74 633.585 1829.52 633.585ZM1938.26 633.585C1931.96 633.585 1926.11 632.398 1920.72 630.023C1915.33 627.557 1910.68 624.315 1906.75 620.296L1913.6 612.35C1916.79 615.73 1920.54 618.47 1924.83 620.57C1929.22 622.58 1933.74 623.584 1938.4 623.584C1944.33 623.584 1948.94 622.26 1952.23 619.611C1955.52 616.871 1957.16 613.309 1957.16 608.925C1957.16 604.359 1955.75 601.071 1952.92 599.061C1950.09 596.961 1946.52 594.951 1942.23 593.033L1929.35 587.416C1925.06 585.681 1920.95 583.032 1917.02 579.47C1913.1 575.908 1911.13 570.839 1911.13 564.263C1911.13 557.413 1913.78 551.751 1919.08 547.275C1924.47 542.709 1931.23 540.425 1939.35 540.425C1944.65 540.425 1949.58 541.476 1954.15 543.576C1958.81 545.586 1962.74 548.234 1965.93 551.522L1959.77 558.92C1957.03 556.272 1953.97 554.217 1950.59 552.755C1947.3 551.203 1943.56 550.426 1939.35 550.426C1934.33 550.426 1930.27 551.614 1927.16 553.988C1924.15 556.363 1922.64 559.56 1922.64 563.578C1922.64 567.871 1924.24 571.068 1927.44 573.168C1930.63 575.269 1934.01 577.05 1937.57 578.511L1950.31 583.991C1955.52 586.275 1959.9 589.197 1963.47 592.759C1967.03 596.23 1968.81 601.299 1968.81 607.966C1968.81 615.09 1966.07 621.164 1960.59 626.187C1955.2 631.119 1947.76 633.585 1938.26 633.585ZM2068.79 631.941V542.069H2094.41C2104.45 542.069 2112.58 544.033 2118.79 547.96C2125 551.796 2128.11 558.646 2128.11 568.51C2128.11 577.918 2125.05 584.905 2118.93 589.471C2112.81 594.038 2104.82 596.321 2094.95 596.321H2080.16V631.941H2068.79ZM2080.16 587.005H2093.58C2109.02 587.005 2116.74 580.84 2116.74 568.51C2116.74 562.026 2114.73 557.55 2110.71 555.084C2106.78 552.527 2100.89 551.248 2093.04 551.248H2080.16V587.005ZM2185.18 584.676H2200.25C2214.77 584.676 2222.04 578.877 2222.04 567.277C2222.04 561.432 2220.16 557.322 2216.42 554.947C2212.67 552.481 2207.29 551.248 2200.25 551.248H2185.18V584.676ZM2185.18 631.941H2173.81V542.069H2201.9C2211.12 542.069 2218.66 543.942 2224.5 547.686C2230.44 551.431 2233.41 557.961 2233.41 567.277C2233.41 574.31 2231.53 579.927 2227.79 584.128C2224.14 588.33 2219.25 591.207 2213.13 592.759L2236.01 631.941H2223.13L2201.49 593.992H2185.18V631.941ZM2279.24 631.941V542.069H2331.02V551.659H2290.61V579.881H2324.72V589.608H2290.61V622.214H2332.39V631.941H2279.24ZM2308.14 536.452L2287.32 520.697L2293.76 513.162L2313.21 530.698L2308.14 536.452ZM2403.84 633.585C2397.54 633.585 2391.7 632.398 2386.31 630.023C2380.92 627.557 2376.26 624.315 2372.33 620.296L2379.18 612.35C2382.38 615.73 2386.13 618.47 2390.42 620.57C2394.8 622.58 2399.32 623.584 2403.98 623.584C2409.92 623.584 2414.53 622.26 2417.82 619.611C2421.11 616.871 2422.75 613.309 2422.75 608.925C2422.75 604.359 2421.33 601.071 2418.5 599.061C2415.67 596.961 2412.11 594.951 2407.82 593.033L2394.94 587.416C2390.65 585.681 2386.54 583.032 2382.61 579.47C2378.68 575.908 2376.72 570.839 2376.72 564.263C2376.72 557.413 2379.37 551.751 2384.66 547.275C2390.05 542.709 2396.81 540.425 2404.94 540.425C2410.24 540.425 2415.17 541.476 2419.74 543.576C2424.39 545.586 2428.32 548.234 2431.52 551.522L2425.35 558.92C2422.61 556.272 2419.55 554.217 2416.17 552.755C2412.89 551.203 2409.14 550.426 2404.94 550.426C2399.92 550.426 2395.85 551.614 2392.75 553.988C2389.73 556.363 2388.23 559.56 2388.23 563.578C2388.23 567.871 2389.82 571.068 2393.02 573.168C2396.22 575.269 2399.6 577.05 2403.16 578.511L2415.9 583.991C2421.11 586.275 2425.49 589.197 2429.05 592.759C2432.61 596.23 2434.4 601.299 2434.4 607.966C2434.4 615.09 2431.66 621.164 2426.18 626.187C2420.79 631.119 2413.34 633.585 2403.84 633.585ZM2534.37 631.941V542.069H2556.84C2570.72 542.069 2581.27 545.951 2588.49 553.714C2595.7 561.386 2599.31 572.346 2599.31 586.594C2599.31 600.934 2595.7 612.076 2588.49 620.022C2581.27 627.968 2570.91 631.941 2557.39 631.941H2534.37ZM2545.74 622.625H2556.02C2566.52 622.625 2574.38 619.474 2579.58 613.172C2584.88 606.87 2587.53 598.011 2587.53 586.594C2587.53 575.269 2584.88 566.592 2579.58 560.564C2574.38 554.445 2566.52 551.385 2556.02 551.385H2545.74V622.625ZM2646.09 631.941V542.069H2697.87V551.659H2657.46V579.881H2691.57V589.608H2657.46V622.214H2699.24V631.941H2646.09ZM2770.69 633.585C2764.39 633.585 2758.55 632.398 2753.16 630.023C2747.77 627.557 2743.11 624.315 2739.18 620.296L2746.03 612.35C2749.23 615.73 2752.98 618.47 2757.27 620.57C2761.65 622.58 2766.17 623.584 2770.83 623.584C2776.77 623.584 2781.38 622.26 2784.67 619.611C2787.96 616.871 2789.6 613.309 2789.6 608.925C2789.6 604.359 2788.18 601.071 2785.35 599.061C2782.52 596.961 2778.96 594.951 2774.67 593.033L2761.79 587.416C2757.5 585.681 2753.39 583.032 2749.46 579.47C2745.53 575.908 2743.57 570.839 2743.57 564.263C2743.57 557.413 2746.22 551.751 2751.51 547.275C2756.9 542.709 2763.66 540.425 2771.79 540.425C2777.09 540.425 2782.02 541.476 2786.59 543.576C2791.24 545.586 2795.17 548.234 2798.37 551.522L2792.2 558.92C2789.46 556.272 2786.4 554.217 2783.02 552.755C2779.74 551.203 2775.99 550.426 2771.79 550.426C2766.77 550.426 2762.7 551.614 2759.6 553.988C2756.58 556.363 2755.08 559.56 2755.08 563.578C2755.08 567.871 2756.67 571.068 2759.87 573.168C2763.07 575.269 2766.45 577.05 2770.01 578.511L2782.75 583.991C2787.96 586.275 2792.34 589.197 2795.9 592.759C2799.46 596.23 2801.24 601.299 2801.24 607.966C2801.24 615.09 2798.5 621.164 2793.02 626.187C2787.64 631.119 2780.19 633.585 2770.69 633.585ZM2901.22 631.941V542.069H2953.01V551.659H2912.59V579.881H2946.71V589.608H2912.59V622.214H2954.38V631.941H2901.22ZM2925.47 536.452L2920.4 530.698L2939.86 513.162L2946.3 520.697L2925.47 536.452ZM3019.53 631.941V551.659H2992.4V542.069H3058.16V551.659H3031.04V631.941H3019.53ZM3134.93 633.585C3123.6 633.585 3114.38 629.384 3107.25 620.981C3100.13 612.487 3096.57 601.025 3096.57 586.594C3096.57 572.255 3100.13 560.975 3107.25 552.755C3114.38 544.535 3123.6 540.425 3134.93 540.425C3146.25 540.425 3155.48 544.535 3162.6 552.755C3169.82 560.975 3173.42 572.255 3173.42 586.594C3173.42 601.025 3169.82 612.487 3162.6 620.981C3155.48 629.384 3146.25 633.585 3134.93 633.585ZM3134.93 623.584C3142.96 623.584 3149.4 620.251 3154.24 613.583C3159.08 606.825 3161.5 597.828 3161.5 586.594C3161.5 575.452 3159.08 566.638 3154.24 560.153C3149.4 553.669 3142.96 550.426 3134.93 550.426C3126.89 550.426 3120.45 553.669 3115.61 560.153C3110.77 566.638 3108.35 575.452 3108.35 586.594C3108.35 597.828 3110.77 606.825 3115.61 613.583C3120.45 620.251 3126.89 623.584 3134.93 623.584ZM3220.18 631.941V542.069H3231.55V631.941H3220.18ZM3283.59 631.941V542.069H3294.96V622.214H3334.28V631.941H3283.59ZM3377.65 631.941V542.069H3429.43V551.659H3389.02V579.881H3423.13V589.608H3389.02V622.214H3430.8V631.941H3377.65ZM3502.25 633.585C3495.95 633.585 3490.1 632.398 3484.72 630.023C3479.33 627.557 3474.67 624.315 3470.74 620.296L3477.59 612.35C3480.79 615.73 3484.53 618.47 3488.83 620.57C3493.21 622.58 3497.73 623.584 3502.39 623.584C3508.33 623.584 3512.94 622.26 3516.23 619.611C3519.51 616.871 3521.16 613.309 3521.16 608.925C3521.16 604.359 3519.74 601.071 3516.91 599.061C3514.08 596.961 3510.52 594.951 3506.23 593.033L3493.35 587.416C3489.05 585.681 3484.94 583.032 3481.02 579.47C3477.09 575.908 3475.13 570.839 3475.13 564.263C3475.13 557.413 3477.77 551.751 3483.07 547.275C3488.46 542.709 3495.22 540.425 3503.35 540.425C3508.65 540.425 3513.58 541.476 3518.14 543.576C3522.8 545.586 3526.73 548.234 3529.93 551.522L3523.76 558.92C3521.02 556.272 3517.96 554.217 3514.58 552.755C3511.29 551.203 3507.55 550.426 3503.35 550.426C3498.32 550.426 3494.26 551.614 3491.16 553.988C3488.14 556.363 3486.63 559.56 3486.63 563.578C3486.63 567.871 3488.23 571.068 3491.43 573.168C3494.63 575.269 3498.01 577.05 3501.57 578.511L3514.31 583.991C3519.51 586.275 3523.9 589.197 3527.46 592.759C3531.02 596.23 3532.8 601.299 3532.8 607.966C3532.8 615.09 3530.06 621.164 3524.58 626.187C3519.19 631.119 3511.75 633.585 3502.25 633.585Z" fill="white"/>
<path fill-rule="evenodd" clip-rule="evenodd" d="M198 0C88.6476 0 0 88.6476 0 198V592C0 701.352 88.6476 790 198 790H592C701.352 790 790 701.352 790 592V198C790 88.6476 701.352 0 592 0H198ZM132.032 714.517C230.007 795.135 427.137 717.438 572.335 540.978C717.533 364.518 755.815 156.115 657.84 75.4977C559.866 -5.11948 362.735 72.5768 217.537 249.037C72.339 425.498 34.057 633.9 132.032 714.517Z" fill="white"/>
<path d="M544.953 401.187C431.958 421.982 415.087 438.852 394.293 551.847C373.499 438.852 356.628 421.982 243.633 401.187C356.628 380.393 373.499 363.522 394.293 250.527C415.087 363.522 431.958 380.393 544.953 401.187Z" fill="white"/>
<circle cx="564.633" cy="187.527" r="43" fill="white"/>
</g>
<defs>
<clipPath id="clip0_1_75">
<rect width="3538" height="790" fill="white"/>
</clipPath>
</defs>
</svg>
